<svg xmlns="http://www.w3.org/2000/svg" viewBox="0 0 104 104" width="104" height="104">
  <rect width="104" height="104" fill="#FF3366"/>
  <g transform="translate(0,16)" stroke="#0A0A0A" stroke-width="4.5" stroke-linecap="round">
    <line x1="26" y1="8" x2="6" y2="68"/>
    <line x1="26" y1="8" x2="46" y2="68"/>
    <line x1="16" y1="38" x2="36" y2="38"/>
    <line x1="46" y1="68" x2="68" y2="68" stroke-width="3"/>
    <line x1="58" y1="8" x2="68" y2="68"/>
    <line x1="68" y1="68" x2="78" y2="34"/>
    <line x1="78" y1="34" x2="88" y2="68"/>
    <line x1="88" y1="68" x2="98" y2="8"/>
  </g>
  <g transform="translate(0,16)" fill="#0A0A0A">
    <circle cx="26" cy="8" r="5.5"/><circle cx="6" cy="68" r="5.5"/><circle cx="46" cy="68" r="5.5"/>
    <circle cx="16" cy="38" r="5.5"/><circle cx="36" cy="38" r="5.5"/>
    <circle cx="58" cy="8" r="5.5"/><circle cx="68" cy="68" r="5.5"/><circle cx="78" cy="34" r="5.5"/>
    <circle cx="88" cy="68" r="5.5"/><circle cx="98" cy="8" r="5.5"/>
  </g>
</svg>
